# xmcd
#
# Track frame offsets: 
#        150
#        16172
#        34362
#        51309
#        73084
#        89801
#        106810
#        125375
#        143767
#        157066
#        176215
#        191900
#        211964
#        230908
#        245520
#        262552
#        279669
#        295818
#        311595
#
# Disc length: 4394 seconds
#
# Revision: 0
# Processed by: cddbd v1.5.2PL0 Copyright (c) Steve Scherf et al.
# Submitted via: ExactAudioCopy v0.95b4
#
DISCID=25112813
DTITLE=Miguel Bose - The Best Of
DYEAR=2000
DGENRE=Ballad
TTITLE0=Te amare
TTITLE1=Creo en ti
TTITLE2=Linda
TTITLE3=Amiga
TTITLE4=Teorema
TTITLE5=Morir de amor
TTITLE6=Mas alla
TTITLE7=Hermano mio
TTITLE8=Te dire
TTITLE9=Horizonte de las estrellas
TTITLE10=Si esto es amor
TTITLE11=Amante bandido
TTITLE12=Bravo muchachos
TTITLE13=Voy a ganar
TTITLE14=Don diablo
TTITLE15=La chula
TTITLE16=Fuego
TTITLE17=Te quiero amor
TTITLE18=Marchate ya
EXTD=
EXTT0=
EXTT1=
EXTT2=
EXTT3=
EXTT4=
EXTT5=
EXTT6=
EXTT7=
EXTT8=
EXTT9=
EXTT10=
EXTT11=
EXTT12=
EXTT13=
EXTT14=
EXTT15=
EXTT16=
EXTT17=
EXTT18=
PLAYORDER=
